<svg xmlns="http://www.w3.org/2000/svg" xmlns:svgjs="http://svgjs.com/svgjs" xmlns:xlink="http://www.w3.org/1999/xlink" width="288" height="288"><svg xmlns="http://www.w3.org/2000/svg" width="288" height="288" viewBox="0 0 500 500"><path fill="#fff" d="M477.52,135.43c3.72-20.13-6.84-37.6-26.3-43.52c-90.6-27.43-180.44-54.64-267.05-80.8            c-5.18-1.57-10.17-2.36-14.82-2.36c-15.49,0-27.41,8.74-34.46,25.26l-22.12,51.7c-12.92,30.19-25.82,60.37-38.74,90.56
            c-0.44,1.04-0.92,2.06-1.46,3.14l-3.03-0.9c-3.42-1.04-6.68-2.03-9.92-2.98c-2.89-0.86-5.59-1.29-8-1.29
            c-8.27,0-13.96,4.97-16.94,14.77c-3.79,12.5-7.58,25.03-11.33,37.54c-4.35,14.4-0.09,22.37,14.17,26.7l27.25,8.25
            c52.7,15.97,107.2,32.47,160.77,48.86c1.8,0.53,3.95,2.33,4.9,4.07c8.71,15.9,17.4,32.15,25.79,47.87
            c2.66,4.95,5.29,9.89,7.93,14.84l13.61,25.42c12.37,23.11,25.17,47.03,37.81,70.54c6.12,11.37,16.85,18.17,28.68,18.17
            c2.15,0,4.32-0.21,6.45-0.67c10.38-2.17,18.79-8.69,23.09-17.89c4.41-9.41,3.98-20.36-1.2-30.07
            c-19.28-36.24-38.99-73.04-58.04-108.61l-10.82-20.18c-0.23-0.44-0.44-0.88-0.67-1.32c-1.34-2.75-3.21-6.49-7.56-6.49
            c-1.13,0-2.33,0.28-3.68,0.83c-1.99,0.86-3.33,2.15-3.93,3.84c-0.9,2.54-0.18,5.69,2.4,10.49l17.75,33.19
            c16.99,31.71,33.95,63.4,50.89,95.13c5.11,9.57,2.5,19.65-6.33,24.52c-2.57,1.41-5.25,2.1-8.02,2.1c-6.4,0-12.32-3.88-15.83-10.42
            c-32.06-59.82-63.33-118.29-92.96-173.81c-4.95-9.29-2.91-17.66,5.73-23.6c6.1-4.16,5.22-8.44,3.42-11.28
            c-1.9-2.94-4.32-3.56-6.03-3.56c-1.8,0-3.74,0.67-5.8,2.03c-10.42,6.86-15.44,16.48-14.93,28.57c0.12,2.8,0.67,5.55,1.2,8.21
            c0.02,0.12,0.05,0.23,0.07,0.35c-18.95-5.76-37.91-11.53-56.86-17.29c-40.93-12.46-81.87-24.92-122.82-37.35
            c-1.39-0.42-2.27-0.97-2.61-1.59c-0.39-0.74-0.3-1.99,0.28-3.84c2.45-7.93,4.88-16.02,7.21-23.85c1.32-4.39,2.63-8.78,3.95-13.17
            c1.78-5.85,2.22-6.08,3.14-6.08c1.23,0,3.35,0.62,6.01,1.43l29.58,8.97c40.66,12.32,81.29,24.64,121.94,36.93
            c3.04,0.92,6.09,1.85,9.13,2.77c3.06,0.93,6.11,1.85,9.17,2.78c3.06,0.93,6.11,1.85,9.17,2.78c3.06,0.93,6.11,1.85,9.17,2.78
            c3.06,0.93,6.12,1.85,9.17,2.78c1.13,0.34,2.28,0.65,3.39,1.03c-0.8-0.32-1.58-0.33-2.41-0.07c-1.3,0.42-2.39,1.28-3.42,2.14
            c-0.94,0.78-1.86,1.68-2.22,2.88c-0.11,0.37-0.16,0.75-0.15,1.14c0.05,2.98,2.08,7.12,4.9,8.32c5.2,2.2,8.85,5.73,11.46,11.09
            c0.32,0.62,0.62,1.27,0.92,1.92c1.53,3.21,3.1,6.52,5.45,9.29c1.59,1.87,4.67,2.7,6.98,2.7c0.95,0,1.78-0.14,2.5-0.39
            c1.18-0.42,2.15-1.53,2.89-3.31c0.25-0.62,1.5-3.84,0.46-6.08c-3.19-6.91-6.7-13.2-10.45-18.74c-3.1-4.55-7.56-7.84-13.59-9.92
            c36.22,11,72.46,21.96,108.68,32.94l85.08,25.75c1.62,0.51,4.62,1.41,5.06,2.24c0.44,0.86-0.49,3.91-0.97,5.57
            c-1.55,5.11-3.07,10.24-4.62,15.37c-2.1,7.05-4.23,14.12-6.36,21.17c-1.48,4.9-2.03,4.9-2.89,4.9c-1.09,0-2.87-0.49-4.6-1.02
            l-13.54-4.09c-31.36-9.48-62.73-18.95-94.07-28.45c-1.8-0.55-3.24-0.81-4.51-0.81c-3.4,0-5.82,1.87-6.86,5.29
            c-2.17,7.21,4.74,9.31,7.03,9.98c15.37,4.65,30.74,9.31,46.11,13.98c21.31,6.45,42.62,12.92,63.95,19.35
            c2.2,0.67,4.37,0.99,6.43,0.99c7.9,0,14.15-4.95,16.73-13.22c3.79-12.3,7.81-25.63,12.62-42.02c3.14-10.77-1.55-19.58-12.25-23.02
            c-3.58-1.13-7.17-2.22-10.93-3.37c-1.16-0.35-2.33-0.69-3.54-1.06c0.02-0.37,0.05-0.69,0.09-0.95
            C458.17,239.95,467.83,187.66,477.52,135.43z M438.92,261.3l-4.78,25.86c-0.09,0.53-0.25,1.06-0.46,1.66l-200.41-60.72
            L87.39,183.92c0.28-0.76,0.55-1.48,0.86-2.17l6.73-15.72c18.07-42.37,36.15-84.71,54.25-127.05c4.25-9.94,11.33-15.21,20.5-15.21
            c2.8,0,5.82,0.49,8.97,1.46c88.85,26.86,177.67,53.76,266.49,80.69c14.03,4.23,19.81,13.68,17.17,28.04
            C454.61,176.41,446.64,219.56,438.92,261.3z" class="color000 svgShape"/><path fill="#fff" d="M193 311.18c0-2.33.02-9.41-7.47-9.64h-.35c-3.63 0-5.41 1.8-6.24 3.33-1.04 1.87-1.16 4.21-1.16 6.03.02 27 .02 53.97 0 80.94 0 1.83.12 4.18 1.18 6.06.83 1.53 2.61 3.33 6.24 3.33h.32c7.49-.21 7.47-7.3 7.47-9.64-.02-9.75-.02-19.51-.02-29.26v-22.07C192.97 330.57 192.97 320.86 193 311.18zM125.84 370.79c-.07-1.02-.16-2.05-.27-3.07-.3-2.78-.93-5.86-3.24-7.43-2.42-1.64-6.8-1.21-9.02.6-2.46 2.02-2.74 5.1-2.73 8.11.03 6.85.06 13.7.1 20.55.04 7.64-.06 15.77-4.21 22.18-3.96 6.14-11.15 9.67-18.39 10.62-2.53.33-5.31.47-7.18 2.21-1.47 1.36-2.05 3.47-2.03 5.47.02 2.01.63 4.1 2.08 5.48 1.85 1.76 4.64 2.05 7.19 1.98 7.61-.2 15.14-2.74 21.3-7.2 6.17-4.46 10.94-10.81 13.51-17.97 2.32-6.47 2.85-13.43 3.08-20.3.15-4.48.19-8.95.11-13.43C126.11 375.99 126.02 373.38 125.84 370.79zM220.11 462.08c-1.62 0-3.33.51-5.59 1.62-2.43 1.2-4.9 1.8-7.35 1.8-8.07 0-13.98-6.4-14.1-15.25-.07-5.69-.07-11.74 0-18.51.07-7.81-4.62-9.11-7.44-9.18l-.3-.02c-2.2 0-3.95.67-5.25 1.99-1.53 1.55-2.24 3.84-2.2 6.96.05 2.47.05 5.02.02 7.47v5.62h.02v.95c-.02 2.33-.05 4.76.05 7.16.67 15.81 13.73 28.17 29.75 28.17 4.74 0 9.27-1.13 13.52-3.35 2.08-1.11 8.41-4.44 5.11-11.12C224.59 462.85 221.98 462.08 220.11 462.08zM447.44 404.04c-.56-.14-1.12-.2-1.68-.18-2.22.05-4.44 1.14-6.63 1.81-4.65 1.44-10.07.9-13.83-2.18-3.13-2.57-4.8-6.58-5.3-10.6-.29-2.29-.27-4.73-1.46-6.71-1.17-1.93-3.41-3.1-5.66-3.21-1.81-.08-3.61.47-5.15 1.42-.38.23-.75.48-1.09.77-.29.24-.48.7-.65 1.04-.4.77-.71 1.59-.93 2.44-.44 1.72-.54 3.51-.43 5.27.04.68.12 1.36.22 2.04.97 6.45 4.08 12.56 8.68 17.18 4.6 4.63 10.66 7.77 17.09 8.92 1.36.24 2.75.4 4.12.25.96-.11 1.9-.37 2.84-.63 1.94-.54 3.89-1.08 5.83-1.62 1.83-.51 3.67-1.02 5.32-1.95 1.65-.93 3.11-2.33 3.73-4.13.54-1.57.38-3.32-.15-4.89C451.53 406.77 449.8 404.64 447.44 404.04zM153.01 332.44h-.07c-4.78 0-7.65 3.14-7.67 8.39-.05 9.18-.05 18.84 0 30.39.02 5.36 2.77 8.48 7.56 8.53h.14c4.69 0 7.53-3.12 7.58-8.39.05-3.54.05-7.1.02-10.63v-9.08c.02-3.56.02-7.12-.02-10.68C160.48 333.3 155.25 332.44 153.01 332.44zM111.69 315.61c.79 1.52 2.01 2.79 3.43 3.74.81.54 1.72 1 2.7 1.02 1.06.03 2.07-.46 3-.96 1.32-.71 2.65-1.51 3.51-2.74.9-1.3 1.18-2.92 1.33-4.49.27-2.84.21-5.7.21-8.55 0-2.36.02-4.79-.85-6.98-.8-2.01-2.38-3.73-4.39-4.54-2.03-.82-4.58-.68-6.28.74-1.83 1.53-2.95 3.38-3.44 5.73-.48 2.28-.39 4.64-.43 6.97-.05 2.83-.26 5.79.56 8.44C111.21 314.55 111.42 315.09 111.69 315.61zM244.57 72.74c-8.33-2.49-17.13 2.25-19.62 10.58l-29.95 100.01c-2.49 8.33 2.25 17.13 10.58 19.62 8.33 2.49 17.13-2.25 19.62-10.58l29.95-100.01C257.64 84.03 252.89 75.23 244.57 72.74zM213.7 188.93c-.6 1.99-2.7 3.12-4.69 2.53s-3.12-2.7-2.53-4.69l29.95-100.01c.6-1.99 2.7-3.12 4.69-2.53 1.99.6 3.12 2.7 2.53 4.69L213.7 188.93zM303.62 90.42c-8.33-2.49-17.13 2.25-19.62 10.58l-29.95 100.01c-2.49 8.33 2.25 17.13 10.58 19.62 8.33 2.49 17.13-2.25 19.62-10.58l29.95-100.01C316.69 101.72 311.95 92.92 303.62 90.42zM272.75 206.62c-.6 1.99-2.7 3.12-4.69 2.53-1.99-.6-3.12-2.7-2.53-4.69l29.95-100.01c.6-1.99 2.7-3.12 4.69-2.53s3.12 2.7 2.53 4.69L272.75 206.62zM362.67 108.11c-8.33-2.49-17.13 2.25-19.62 10.58L313.09 218.7c-2.49 8.33 2.25 17.13 10.58 19.62s17.13-2.25 19.62-10.58l29.95-100.01C375.74 119.4 371 110.6 362.67 108.11zM331.8 224.3c-.6 1.99-2.7 3.12-4.69 2.53-1.99-.6-3.12-2.7-2.53-4.69l29.95-100.01c.6-1.99 2.7-3.12 4.69-2.53 1.99.6 3.12 2.7 2.53 4.69L331.8 224.3zM421.72 125.79c-8.33-2.49-17.13 2.25-19.62 10.58l-29.95 100.01c-2.49 8.33 2.25 17.13 10.58 19.62 8.33 2.49 17.13-2.25 19.62-10.58l29.95-100.01C434.79 137.09 430.05 128.29 421.72 125.79zM390.85 241.98c-.6 1.99-2.7 3.12-4.69 2.53s-3.12-2.7-2.53-4.69l29.95-100.01c.6-1.99 2.7-3.12 4.69-2.53 1.99.6 3.12 2.7 2.53 4.69L390.85 241.98zM185.52 55.05c-8.33-2.49-17.13 2.25-19.62 10.58l-29.95 100.01c-2.49 8.33 2.25 17.13 10.58 19.62 8.33 2.49 17.13-2.25 19.62-10.58L196.1 74.68C198.59 66.35 193.84 57.55 185.52 55.05zM154.65 171.25c-.6 1.99-2.7 3.12-4.69 2.53s-3.12-2.7-2.53-4.69l29.95-100.01c.6-1.99 2.7-3.12 4.69-2.53 1.99.6 3.12 2.7 2.53 4.69L154.65 171.25z" class="color000 svgShape"/></svg></svg>