<svg xmlns="http://www.w3.org/2000/svg" width="17.611" height="23.482" viewBox="0 0 17.611 23.482">
  <path id="invitee-list-icon" d="M15.41,2.935H11.741a2.935,2.935,0,1,0-5.87,0H2.2A2.2,2.2,0,0,0,0,5.137V21.28a2.2,2.2,0,0,0,2.2,2.2H15.41a2.2,2.2,0,0,0,2.2-2.2V5.137A2.2,2.2,0,0,0,15.41,2.935ZM4.4,19.446a1.1,1.1,0,1,1,1.1-1.1A1.1,1.1,0,0,1,4.4,19.446Zm0-4.4a1.1,1.1,0,1,1,1.1-1.1A1.1,1.1,0,0,1,4.4,15.043Zm0-4.4a1.1,1.1,0,1,1,1.1-1.1A1.1,1.1,0,0,1,4.4,10.64Zm4.4-8.806a1.1,1.1,0,1,1-1.1,1.1A1.1,1.1,0,0,1,8.806,1.835Zm5.87,16.878a.368.368,0,0,1-.367.367H7.7a.368.368,0,0,1-.367-.367v-.734a.368.368,0,0,1,.367-.367h6.6a.368.368,0,0,1,.367.367Zm0-4.4a.368.368,0,0,1-.367.367H7.7a.368.368,0,0,1-.367-.367v-.734a.368.368,0,0,1,.367-.367h6.6a.368.368,0,0,1,.367.367Zm0-4.4a.368.368,0,0,1-.367.367H7.7a.368.368,0,0,1-.367-.367V9.173A.368.368,0,0,1,7.7,8.806h6.6a.368.368,0,0,1,.367.367Z" fill="#efc148"/>
</svg>
