<svg xmlns="http://www.w3.org/2000/svg" width="19" height="19" viewBox="0 0 19 19">
  <path id="my-subs-icon" d="M6.846,4.837V19.543a.641.641,0,0,1-.639.639h0a.641.641,0,0,1-.639-.639V6.3H4.837A1.46,1.46,0,0,0,3.375,7.76V20.913a1.46,1.46,0,0,0,1.462,1.462H20.964a1.412,1.412,0,0,0,1.411-1.411V4.837a1.46,1.46,0,0,0-1.462-1.462l-12.7.091A1.309,1.309,0,0,0,6.846,4.837ZM9.861,6.3H13.7a.641.641,0,0,1,.639.639h0a.641.641,0,0,1-.639.639H9.861a.641.641,0,0,1-.639-.639h0A.641.641,0,0,1,9.861,6.3Zm0,7.308h6.76a.641.641,0,0,1,.639.639h0a.641.641,0,0,1-.639.639H9.861a.641.641,0,0,1-.639-.639h0A.641.641,0,0,1,9.861,13.606Zm8.952,4.933H9.861a.641.641,0,0,1-.639-.639h0a.641.641,0,0,1,.639-.639h8.952a.641.641,0,0,1,.639.639h0A.641.641,0,0,1,18.813,18.538Zm0-7.308H9.861a.641.641,0,0,1-.639-.639h0a.641.641,0,0,1,.639-.639h8.952a.641.641,0,0,1,.639.639h0A.641.641,0,0,1,18.813,11.231Z" transform="translate(-3.375 -3.375)" fill="#efc148"/>
</svg>
